<svg width="224" height="138" viewBox="0 0 224 138" fill="none" xmlns="http://www.w3.org/2000/svg">
<g id="seated_man">
<path id="arm_b" d="M179.376 53.6453C179.38 53.0959 179.27 52.5516 179.051 52.0464C178.833 51.5412 178.512 51.086 178.109 50.7091C177.705 50.3323 177.227 50.0419 176.705 49.8561C176.183 49.6703 175.628 49.5931 175.074 49.6293C174.521 49.6655 173.98 49.8144 173.488 50.0665C172.995 50.3187 172.56 50.6688 172.209 51.095C171.859 51.5212 171.602 52.0143 171.452 52.5435C171.303 53.0727 171.266 53.6266 171.343 54.1708L159.747 69.2088C159.252 70.1887 159.06 71.2915 159.195 72.379C159.33 73.4665 159.787 74.4903 160.507 75.3222L161.416 76.373L165.59 75.5464L170.32 71.4131L169.764 66.7288L175.607 57.6357L175.6 57.6291C176.623 57.5646 177.582 57.1169 178.284 56.3769C178.985 55.6369 179.376 54.6602 179.376 53.6453Z" fill="#9E7E66"/>
<path id="leg_b" d="M135.296 126.052L129.408 121.812L143.122 97.3037L151.812 103.562L135.296 126.052Z" fill="#9E7E66"/>
<path id="shoe_b" d="M132.647 132.785L113.661 119.113L113.836 118.875C115.261 116.934 117.406 115.634 119.8 115.259C122.194 114.885 124.639 115.467 126.599 116.879L126.6 116.879L138.196 125.23L132.647 132.785Z" fill="#FFB3AB"/>
<path id="pant_b" d="M185.346 91.8041L170.529 77.5505C169.236 76.3065 167.533 75.5667 165.733 75.4671C163.933 75.3675 162.157 75.9149 160.732 77.0085L132.756 107.786L135.26 111.644L161.973 93.7329L180.059 117.155L197.311 108.613L185.346 91.8041Z" fill="#2A3950"/>
<path id="arm_f" d="M178.946 94.835L168.094 94.0083L160.235 92.1216C159.791 91.4358 159.147 90.9007 158.387 90.5878C157.628 90.275 156.79 90.1994 155.986 90.3711C155.182 90.5429 154.45 90.9538 153.888 91.5488C153.326 92.1439 152.961 92.8947 152.842 93.7007C152.723 94.5067 152.856 95.3295 153.222 96.0589C153.588 96.7883 154.171 97.3895 154.892 97.782C155.612 98.1744 156.437 98.3395 157.255 98.255C158.073 98.1706 158.846 97.8406 159.47 97.3093L159.468 97.3149L164.199 99.2438L184.511 106.133L187.016 104.204L178.946 94.835Z" fill="#9E7E66"/>
<path id="leg_f" d="M99.1849 127.165L97.292 120.203L123.507 109.66L126.301 119.935L99.1849 127.165Z" fill="#9E7E66"/>
<path id="shoe_f" d="M92.8531 130.757L86.75 108.309L87.0367 108.233C89.3767 107.609 91.871 107.931 93.9711 109.129C96.0712 110.326 97.6051 112.3 98.2353 114.617L98.2355 114.618L101.963 128.328L92.8531 130.757Z" fill="#FFB3AB"/>
<g id="pant_f" filter="url(#filter0_d_602_156)">
<path d="M205.102 124.6L198.98 128.458H191.746L158.077 116.058L108.826 124.876L107.435 114.405L152.512 94.8408L192.024 107.792L205.102 124.6Z" fill="#394F6B"/>
</g>
<g id="shirt" filter="url(#filter1_d_602_156)">
<path d="M220.103 89.7952C220.103 96.2808 219.071 102.726 217.045 108.894L216.232 111.368L212.337 129.003L208.163 130.105L205.102 126.248L198.981 121.839L194.529 114.675L190.711 108.376L189.52 106.408L185.346 85.7418L169.486 76.9243L164.199 76.0976L165.312 73.0666L170.042 66.7289L174.772 66.1778L176.164 65.0756L177.277 65.6267L183.412 67.9674L203.305 59.6445L206.215 60.1157L216.232 68.3822C218.793 75.2365 220.104 82.4868 220.103 89.7952Z" fill="#E8FAF9"/>
</g>
<g id="shoulder_f" filter="url(#filter2_d_602_156)">
<path d="M195.642 72.5156L187.016 88.2217L182.007 93.733L177.555 94.8352L189.52 107.786L206.493 92.6307L217.067 85.7418L195.642 72.5156Z" fill="#E8FAF9"/>
</g>
<path id="face" d="M192.024 57.6359C198.018 57.6359 202.876 52.8246 202.876 46.8895C202.876 40.9544 198.018 36.1431 192.024 36.1431C186.031 36.1431 181.172 40.9544 181.172 46.8895C181.172 52.8246 186.031 57.6359 192.024 57.6359Z" fill="#9E7E66"/>
<path id="hair" d="M183.584 38.899L182.408 39.3469C182.229 39.2273 182.076 39.0739 181.958 38.8957C181.839 38.7175 181.757 38.5179 181.716 38.3083C181.676 38.0987 181.677 37.8832 181.72 37.6741C181.764 37.465 181.848 37.2664 181.969 37.0897C181.975 37.0804 181.982 37.0712 181.988 37.0621L179.815 36.9614C181.21 35.1218 182.984 33.5965 185.018 32.4863C187.053 31.3762 189.302 30.7066 191.618 30.5218C193.933 30.3369 196.262 30.6411 198.45 31.4142C200.638 32.1873 202.635 33.4117 204.309 35.0063C204.408 34.6689 205.487 35.3254 205.927 35.991C206.075 35.4419 207.086 38.0959 207.444 39.972C207.609 39.3473 208.246 40.3557 207.688 41.3233C208.041 41.2722 208.201 42.1675 207.928 42.6663C208.314 42.4865 208.249 43.5552 207.83 44.2695C208.381 44.2209 207.783 55.4728 199.504 54.653C198.928 52.0306 199.09 52.1935 198.411 48.8215C198.096 48.4894 197.75 48.187 197.404 47.8851L195.536 46.2523C193.364 44.3537 191.388 42.0104 188.495 41.3008C186.506 40.8131 185.249 40.703 186.333 38.4841C185.354 38.8887 184.439 39.4904 183.452 39.8662C183.465 39.5561 183.603 39.2092 183.584 38.899Z" fill="#1F2633"/>
<path id="square_outline_5" d="M111.239 82.5874L113.521 93.1037L102.901 95.3634L100.619 84.847L111.239 82.5874ZM112.96 92.7448L110.876 83.1429L101.18 85.206L103.263 94.8079L112.96 92.7448Z" fill="#394F6B"/>
<path id="square_5" d="M117.377 86.7822L108.631 88.6431L110.511 97.3036L119.256 95.4427L117.377 86.7822Z" fill="#E8FAF9"/>
<path id="square_outline_4" d="M137.084 48.2381L129.157 55.5914L121.731 47.741L129.659 40.3877L137.084 48.2381ZM129.178 54.9303L136.417 48.2165L129.637 41.0487L122.399 47.7626L129.178 54.9303Z" fill="#394F6B"/>
<path id="square_4" d="M130.5 49.1436L123.971 55.1992L130.086 61.6643L136.615 55.6086L130.5 49.1436Z" fill="#E8FAF9"/>
<path id="square_outline_3" d="M159.875 15.1494L170.713 15.8642L169.991 26.5968L159.153 25.882L159.875 15.1494ZM170.21 16.2997L160.315 15.6471L159.656 25.4464L169.551 26.099L170.21 16.2997Z" fill="#394F6B"/>
<path id="square_3" d="M165.633 10.4558L165.039 19.2944L173.964 19.8831L174.559 11.0444L165.633 10.4558Z" fill="#E8FAF9"/>
<path id="square_outline_2" d="M105.926 0.0327148L108.208 10.5491L97.5885 12.8087L95.3066 2.29236L105.926 0.0327148ZM107.647 10.1901L105.564 0.588197L95.8676 2.65134L97.951 12.2532L107.647 10.1901Z" fill="#394F6B"/>
<path id="square_2" d="M112.065 4.22749L103.319 6.08838L105.198 14.7489L113.944 12.888L112.065 4.22749Z" fill="#E8FAF9"/>
<path id="square_oultine_1" d="M79.7465 45.8802L71.819 53.2335L64.3936 45.383L72.3211 38.0298L79.7465 45.8802ZM71.8408 52.5724L79.079 45.8586L72.2992 38.6908L65.0611 45.4047L71.8408 52.5724Z" fill="#394F6B"/>
<path id="square_1" d="M73.1618 46.7862L66.6333 52.8418L72.7484 59.3069L79.2769 53.2512L73.1618 46.7862Z" fill="#E8FAF9"/>
<path id="square_outline_0" d="M31.984 24.2207L42.822 24.9355L42.1002 35.668L31.2622 34.9533L31.984 24.2207ZM42.3194 25.371L32.4238 24.7184L31.7648 34.5177L41.6604 35.1703L42.3194 25.371Z" fill="#394F6B"/>
<path id="square_0" d="M37.7426 19.5276L37.1482 28.3662L46.0736 28.9548L46.668 20.1162L37.7426 19.5276Z" fill="#E8FAF9"/>
</g>
<defs>
<filter id="filter0_d_602_156" x="97.4346" y="83.8408" width="117.667" height="53.6172" filterUnits="userSpaceOnUse" color-interpolation-filters="sRGB">
<feFlood flood-opacity="0" result="BackgroundImageFix"/>
<feColorMatrix in="SourceAlpha" type="matrix" values="0 0 0 0 0 0 0 0 0 0 0 0 0 0 0 0 0 0 127 0" result="hardAlpha"/>
<feOffset dy="-1"/>
<feGaussianBlur stdDeviation="5"/>
<feColorMatrix type="matrix" values="0 0 0 0 0 0 0 0 0 0 0 0 0 0 0 0 0 0 0.15 0"/>
<feBlend mode="normal" in2="BackgroundImageFix" result="effect1_dropShadow_602_156"/>
<feBlend mode="normal" in="SourceGraphic" in2="effect1_dropShadow_602_156" result="shape"/>
</filter>
<filter id="filter1_d_602_156" x="161.199" y="57.6445" width="61.9043" height="76.4609" filterUnits="userSpaceOnUse" color-interpolation-filters="sRGB">
<feFlood flood-opacity="0" result="BackgroundImageFix"/>
<feColorMatrix in="SourceAlpha" type="matrix" values="0 0 0 0 0 0 0 0 0 0 0 0 0 0 0 0 0 0 127 0" result="hardAlpha"/>
<feOffset dy="1"/>
<feGaussianBlur stdDeviation="1.5"/>
<feComposite in2="hardAlpha" operator="out"/>
<feColorMatrix type="matrix" values="0 0 0 0 0 0 0 0 0 0 0 0 0 0 0 0 0 0 0.25 0"/>
<feBlend mode="normal" in2="BackgroundImageFix" result="effect1_dropShadow_602_156"/>
<feBlend mode="normal" in="SourceGraphic" in2="effect1_dropShadow_602_156" result="shape"/>
</filter>
<filter id="filter2_d_602_156" x="174.555" y="70.5156" width="45.5117" height="41.2705" filterUnits="userSpaceOnUse" color-interpolation-filters="sRGB">
<feFlood flood-opacity="0" result="BackgroundImageFix"/>
<feColorMatrix in="SourceAlpha" type="matrix" values="0 0 0 0 0 0 0 0 0 0 0 0 0 0 0 0 0 0 127 0" result="hardAlpha"/>
<feOffset dy="1"/>
<feGaussianBlur stdDeviation="1.5"/>
<feComposite in2="hardAlpha" operator="out"/>
<feColorMatrix type="matrix" values="0 0 0 0 0 0 0 0 0 0 0 0 0 0 0 0 0 0 0.25 0"/>
<feBlend mode="normal" in2="BackgroundImageFix" result="effect1_dropShadow_602_156"/>
<feBlend mode="normal" in="SourceGraphic" in2="effect1_dropShadow_602_156" result="shape"/>
</filter>
</defs>
</svg>
