<svg width="43" height="43" viewBox="0 0 43 43" fill="none"
  xmlns="http://www.w3.org/2000/svg">
  <path d="M21.5992 3.93994C11.456 3.93584 3.2406 12.1472 3.2406 22.2821C3.2406 30.2966 8.37986 37.1093 15.5371 39.6112C16.501 39.8532 16.3533 39.1683 16.3533 38.7007V35.522C10.7875 36.1741 10.5619 32.4909 10.1886 31.8757C9.43396 30.5878 7.64978 30.2597 8.18298 29.6444C9.45037 28.9923 10.7424 29.8085 12.2394 32.0192C13.3222 33.623 15.4345 33.3522 16.5051 33.0856C16.7388 32.1218 17.2392 31.2604 17.9283 30.5919C12.1615 29.5583 9.75798 26.0392 9.75798 21.8556C9.75798 19.8253 10.4265 17.9591 11.739 16.4538C10.9023 13.9724 11.817 11.8478 11.94 11.5319C14.323 11.3187 16.8004 13.2382 16.9931 13.3899C18.3467 13.0249 19.8929 12.8321 21.6238 12.8321C23.3629 12.8321 24.9133 13.0331 26.2791 13.4022C26.7426 13.0495 29.0394 11.4007 31.2543 11.6017C31.3732 11.9175 32.2674 13.9929 31.4799 16.4415C32.8088 17.9509 33.4855 19.8335 33.4855 21.8679C33.4855 26.0597 31.0656 29.5829 25.2824 30.6001C25.7777 31.0872 26.1711 31.6682 26.4394 32.309C26.7077 32.9499 26.8456 33.6378 26.8451 34.3325V38.9468C26.8779 39.3159 26.8451 39.681 27.4603 39.681C34.7242 37.2323 39.9537 30.3704 39.9537 22.2862C39.9537 12.1472 31.7342 3.93994 21.5992 3.93994V3.93994Z" fill="black"/>
</svg>
