<svg width="43" height="43" viewBox="0 0 36 36" fill="none"
  xmlns="http://www.w3.org/2000/svg">
  <path id="Vector" fill-rule="evenodd" clip-rule="evenodd" d="M2.07398 4.94946C2.07398 4.23857 2.35638 3.5568 2.85905 3.05412C3.36173 2.55145 4.0435 2.26905 4.75439 2.26905H31.474C31.8263 2.26847 32.1752 2.33739 32.5008 2.47185C32.8265 2.60632 33.1224 2.80369 33.3716 3.05266C33.6209 3.30164 33.8186 3.59733 33.9534 3.92281C34.0882 4.24829 34.1575 4.59717 34.1573 4.94946V31.669C34.1577 32.0214 34.0886 32.3704 33.954 32.696C33.8193 33.0217 33.6218 33.3176 33.3728 33.5668C33.1237 33.816 32.8279 34.0137 32.5023 34.1485C32.1767 34.2833 31.8278 34.3526 31.4754 34.3524H4.75439C4.40227 34.3524 4.0536 34.283 3.7283 34.1482C3.40301 34.0134 3.10745 33.8158 2.85854 33.5668C2.60962 33.3177 2.41221 33.0221 2.27759 32.6967C2.14297 32.3713 2.07378 32.0226 2.07398 31.6705V4.94946ZM14.7731 14.5015H19.1175V16.6832C19.7446 15.429 21.3488 14.3003 23.7594 14.3003C28.3808 14.3003 29.4761 16.7984 29.4761 21.382V29.8724H24.7992V22.4261C24.7992 19.8157 24.1721 18.3428 22.5796 18.3428C20.3702 18.3428 19.4515 19.9309 19.4515 22.4261V29.8724H14.7731V14.5015ZM6.75231 29.6726H11.4306V14.3003H6.75231V29.6711V29.6726ZM12.1 9.28655C12.1088 9.68711 12.0376 10.0854 11.8904 10.458C11.7432 10.8307 11.523 11.1702 11.2429 11.4566C10.9627 11.743 10.6281 11.9706 10.2588 12.1259C9.88949 12.2813 9.49287 12.3613 9.0922 12.3613C8.69154 12.3613 8.29492 12.2813 7.9256 12.1259C7.55629 11.9706 7.22173 11.743 6.94155 11.4566C6.66138 11.1702 6.44124 10.8307 6.29404 10.458C6.14685 10.0854 6.07557 9.68711 6.08439 9.28655C6.10171 8.50029 6.4262 7.75208 6.98839 7.20213C7.55058 6.65219 8.30576 6.34424 9.0922 6.34424C9.87865 6.34424 10.6338 6.65219 11.196 7.20213C11.7582 7.75208 12.0827 8.50029 12.1 9.28655Z" fill="black"/>
</svg>
